HIERARCHY
ROOT SpineBase
{
  OFFSET 0.000000 0.000000 0.000000
  CHANNELS 6 Xposition Yposition Zposition Zrotation Xrotation Yrotation
  JOINT SpineMid
  {
    OFFSET 0.000000 29.679456 -0.000000
    CHANNELS 3 Zrotation Xrotation Yrotation
    JOINT SpineShoulder
    {
      OFFSET -0.034233 22.027441 -0.779101
      CHANNELS 3 Zrotation Xrotation Yrotation
      JOINT Neck
      {
        OFFSET -0.032818 7.286982 -0.575134
        CHANNELS 3 Zrotation Xrotation Yrotation
        JOINT Head
        {
          OFFSET -1.774776 12.248085 -0.262875
          CHANNELS 3 Zrotation Xrotation Yrotation
          End Site
          {
            OFFSET 0 0 0
          }
        }
      }
      JOINT ShoulderLeft
      {
        OFFSET -16.117052 -1.483882 2.772808
        CHANNELS 3 Zrotation Xrotation Yrotation
        JOINT ElbowLeft
        {
          OFFSET -3.250611 -25.947185 1.074449
          CHANNELS 3 Zrotation Xrotation Yrotation
          JOINT WristLeft
          {
            OFFSET -0.820542 -24.718697 -4.632572
            CHANNELS 3 Zrotation Xrotation Yrotation
            JOINT HandLeft
            {
              OFFSET 0.289279 -5.193825 -2.567751
              CHANNELS 3 Zrotation Xrotation Yrotation
              JOINT HandTipLeft
              {
                OFFSET -1.499077 -8.076401 -2.966182
                CHANNELS 3 Zrotation Xrotation Yrotation
                End Site
                {
                  OFFSET 0 0 0
                }
              }
              JOINT ThumbLeft
              {
                OFFSET 3.756350 -0.041410 -2.860343
                CHANNELS 3 Zrotation Xrotation Yrotation
                End Site
                {
                  OFFSET 0 0 0
                }
              }
            }
          }
        }
      }
      JOINT ShoulderRight
      {
        OFFSET 15.927434 -1.696033 -4.128859
        CHANNELS 3 Zrotation Xrotation Yrotation
        JOINT ElbowRight
        {
          OFFSET 6.925289 -25.062786 -1.625459
          CHANNELS 3 Zrotation Xrotation Yrotation
          JOINT WristRight
          {
            OFFSET 0.086580 -22.629228 -5.301507
            CHANNELS 3 Zrotation Xrotation Yrotation
            JOINT HandRight
            {
              OFFSET -2.284931 -6.828991 -1.587027
              CHANNELS 3 Zrotation Xrotation Yrotation
              JOINT HandTipRight
              {
                OFFSET -0.008310 -7.053440 -1.472880
                CHANNELS 3 Zrotation Xrotation Yrotation
                End Site
                {
                  OFFSET 0 0 0
                }
              }
              JOINT ThumbRight
              {
                OFFSET 1.221656 -2.548196 -3.685697
                CHANNELS 3 Zrotation Xrotation Yrotation
                End Site
                {
                  OFFSET 0 0 0
                }
              }
            }
          }
        }
      }
    }
  }
  JOINT HipLeft
  {
    OFFSET -7.451715 0.521914 -2.199907
    CHANNELS 3 Zrotation Xrotation Yrotation
    JOINT KneeLeft
    {
      OFFSET -8.249815 -32.432393 -7.840257
      CHANNELS 3 Zrotation Xrotation Yrotation
      JOINT AnkleLeft
      {
        OFFSET -1.687073 -35.172679 6.755498
        CHANNELS 3 Zrotation Xrotation Yrotation
        JOINT FootLeft
        {
          OFFSET -1.592902 -3.357079 -12.483552
          CHANNELS 3 Zrotation Xrotation Yrotation
          End Site
          {
            OFFSET 0 0 0
          }
        }
      }
    }
  }
  JOINT HipRight
  {
    OFFSET 6.876936 0.851231 -4.671950
    CHANNELS 3 Zrotation Xrotation Yrotation
    JOINT KneeRight
    {
      OFFSET 5.901678 -29.771414 2.752594
      CHANNELS 3 Zrotation Xrotation Yrotation
      JOINT AnkleRight
      {
        OFFSET 0.709174 -35.550791 7.045164
        CHANNELS 3 Zrotation Xrotation Yrotation
        JOINT FootRight
        {
          OFFSET -1.918278 -4.239691 -13.761487
          CHANNELS 3 Zrotation Xrotation Yrotation
          End Site
          {
            OFFSET 0 0 0
          }
        }
      }
    }
  }
}
MOTION
Frames: 15
Frame Time: 0.033333
29.241359 83.306016 365.984253 13.702411 6.179973 0.235125 -0.272393 0.933036 -0.615807 -0.781344 0.511856 0.444399 -30.385939 -6.305440 -4.343377 0.000000 0.000000 0.000000 -70.859239 -27.098454 -19.349132 -82.269991 -19.408333 55.124660 -7.169768 -17.846412 48.179322 -85.129361 15.844154 90.178543 0.000000 0.000000 0.000000 0.000000 0.000000 0.000000 78.361945 41.516263 -24.255536 164.740305 20.200344 -21.831182 19.067534 43.725058 21.663431 -52.358710 -32.251828 -65.714387 0.000000 0.000000 0.000000 0.000000 0.000000 0.000000 -4.816385 -28.104819 4.777994 -6.619575 23.638117 -2.552393 0.887034 -0.750446 -7.098761 0.000000 0.000000 0.000000 -21.372329 -5.591130 -3.151577 13.097334 -3.167608 1.865798 -3.634048 6.021212 -7.545447 0.000000 0.000000 0.000000
29.344310 81.729033 365.630161 13.421684 7.168961 -0.441493 -1.112837 0.645879 -0.094363 -0.826030 0.846690 0.358477 -35.891531 -4.373009 -4.710575 0.000000 0.000000 0.000000 -68.210030 -24.500193 -18.389786 -98.483420 -27.401499 52.793888 -4.009719 -29.958572 12.349026 -46.359136 40.604577 -148.193714 0.000000 0.000000 0.000000 0.000000 0.000000 0.000000 76.604811 36.134924 -18.648925 165.797631 18.345397 -13.830168 20.197419 24.884029 11.026939 -36.596524 -26.846774 -45.098848 0.000000 0.000000 0.000000 0.000000 0.000000 0.000000 -4.321128 -30.178233 5.879360 -6.250173 24.695732 -2.917050 -0.041101 -0.721925 -3.709746 0.000000 0.000000 0.000000 -20.744867 -7.693223 -3.016781 12.564045 -2.282830 1.832298 -4.591483 6.003637 -3.978973 0.000000 0.000000 0.000000
29.424845 80.339987 365.295478 12.395533 7.365347 -1.243677 -1.634763 0.030087 0.724439 0.091715 1.213202 0.396644 -40.813479 -1.375680 -4.198748 0.000000 0.000000 0.000000 -69.264835 -19.792441 -17.083613 -137.530686 -24.815044 -108.911496 17.020534 49.564905 172.241394 16.937461 7.722439 -24.741762 0.000000 0.000000 0.000000 0.000000 0.000000 0.000000 78.863172 31.317849 -16.351693 165.606781 16.691594 -7.810135 13.591314 4.299225 1.342635 -19.409110 -14.573433 -23.511828 0.000000 0.000000 0.000000 0.000000 0.000000 0.000000 -3.092419 -31.424174 7.299355 -5.495553 25.784429 -3.427062 -0.611366 -5.376043 0.021299 0.000000 0.000000 0.000000 -19.313617 -8.864144 -2.302339 12.196043 -1.966349 1.833925 -5.705689 6.029799 -0.186442 0.000000 0.000000 0.000000
29.459604 79.205990 364.942294 10.722442 6.452430 -0.316447 -2.117722 -0.714645 -0.042020 0.460219 1.396418 0.348548 -44.152369 3.800554 -1.681525 0.000000 0.000000 0.000000 -68.312778 -16.229243 -14.710476 -123.870729 -35.450841 23.049148 -21.790771 17.866729 -114.268418 -45.588151 37.330691 -127.939528 0.000000 0.000000 0.000000 0.000000 0.000000 0.000000 92.766796 28.327042 -19.951829 155.583929 17.989938 -0.982281 17.429823 -11.820463 -9.914844 -18.693567 -3.521306 -7.833597 0.000000 0.000000 0.000000 0.000000 0.000000 0.000000 -2.184162 -31.016042 6.679780 -4.818748 26.366215 -3.810409 -0.851280 -9.468130 2.972527 0.000000 0.000000 0.000000 -17.532084 -8.670548 -2.891538 11.979675 -1.474375 1.871728 -6.465913 5.892719 2.465425 0.000000 0.000000 0.000000
29.532145 78.204046 364.628655 8.322543 4.500917 0.799159 -1.854209 -0.785380 -0.917359 0.665371 1.048264 0.307483 -46.388194 7.206829 0.876558 0.000000 0.000000 0.000000 -69.509848 -13.844188 -12.639168 -119.995967 -34.429026 54.498197 55.340833 11.591855 102.337224 13.036849 -0.940840 -25.769829 0.000000 0.000000 0.000000 0.000000 0.000000 0.000000 111.032475 21.273672 -22.748262 140.763560 15.287061 4.964387 20.115704 -15.607177 -12.330924 -21.860274 -1.761655 -3.395423 0.000000 0.000000 0.000000 0.000000 0.000000 0.000000 -0.398775 -29.479503 5.855152 -4.533750 26.855650 -4.025594 -0.865714 -12.252930 5.255437 0.000000 0.000000 0.000000 -15.228847 -7.176583 -3.366712 11.982660 -1.293458 1.908973 -6.950192 5.890456 4.351168 0.000000 0.000000 0.000000
29.532300 77.730646 364.479921 6.527434 4.048346 2.304125 -2.000016 -1.147156 -2.387554 0.797558 0.706020 0.260918 -53.375255 4.977927 0.163128 0.000000 0.000000 0.000000 -62.497116 -5.103901 -7.107892 -124.206895 -23.835152 95.096210 57.667006 -37.687448 63.436133 44.308252 5.121845 4.652751 0.000000 0.000000 0.000000 0.000000 0.000000 0.000000 122.558599 19.898750 -26.830402 133.683602 19.185864 8.868615 19.717840 -18.920151 -14.188152 -19.720644 -2.268808 -4.859018 0.000000 0.000000 0.000000 0.000000 0.000000 0.000000 0.767166 -29.008902 4.264906 -4.670699 26.809987 -3.947171 -0.846878 -13.289107 6.102362 0.000000 0.000000 0.000000 -13.661996 -6.539613 -4.644449 12.084895 -1.625714 1.932246 -7.122029 6.104128 5.020893 0.000000 0.000000 0.000000
29.366620 77.870690 364.468818 4.172997 2.447667 3.362994 -2.037582 -1.189169 -3.387678 0.815049 0.189027 0.168044 -57.972967 -0.626637 -2.692366 0.000000 0.000000 0.000000 -53.451569 -2.304947 -3.847192 -132.040355 -19.430004 143.135167 8.314056 -56.224519 12.812298 35.886847 -6.983889 0.687353 0.000000 0.000000 0.000000 0.000000 0.000000 0.000000 135.026496 16.978163 -31.325836 127.010582 22.540164 11.604133 19.281694 -12.182898 -10.646688 -20.615624 -10.460638 -12.914682 0.000000 0.000000 0.000000 0.000000 0.000000 0.000000 3.416744 -27.025480 2.989832 -5.673731 26.239788 -3.399188 -0.642639 -12.473171 4.546758 0.000000 0.000000 0.000000 -11.255317 -4.401407 -5.099461 12.208334 -2.396613 1.938783 -6.820743 6.440140 3.680478 0.000000 0.000000 0.000000
29.353170 77.770702 364.268361 2.152199 1.440086 4.499352 -2.259078 -1.265792 -4.551361 0.837672 0.372559 0.065084 -57.469442 -1.917246 -3.098504 0.000000 0.000000 0.000000 -46.811283 -1.740098 -2.660539 -138.574792 -22.429698 -159.693565 -34.762157 -38.416752 -36.712860 20.121441 -17.698058 -9.880698 0.000000 0.000000 0.000000 0.000000 0.000000 0.000000 143.377007 16.888787 -36.156668 124.908654 31.343537 16.442243 17.448042 -12.606894 -11.458992 -19.132337 -11.387693 -12.312446 0.000000 0.000000 0.000000 0.000000 0.000000 0.000000 5.580771 -25.993442 1.637687 -6.706359 25.728327 -2.923832 -0.324222 -9.733246 2.020690 0.000000 0.000000 0.000000 -9.618087 -3.038046 -5.974935 12.738362 -3.037332 1.986046 -6.276246 7.062130 1.503302 0.000000 0.000000 0.000000
29.433580 77.917133 364.070980 0.783107 0.839931 5.591608 -1.874995 -0.745944 -5.652235 1.010035 0.086173 0.035100 -55.404628 -2.391781 -3.130015 0.000000 0.000000 0.000000 -41.998774 -3.434391 -2.581914 -131.936827 -34.646050 -92.041304 -47.547735 -23.507544 -57.783055 -17.750410 -11.854134 -51.664773 0.000000 0.000000 0.000000 0.000000 0.000000 0.000000 152.304547 22.385871 -50.710531 124.893638 52.649735 22.523592 -0.333637 -28.003869 -24.235723 -9.336385 2.098191 -3.796770 0.000000 0.000000 0.000000 0.000000 0.000000 0.000000 7.059167 -25.294293 0.274788 -7.687447 25.206949 -2.465085 -0.144319 -5.902529 -0.042818 0.000000 0.000000 0.000000 -8.402931 -2.606214 -7.028495 12.555113 -3.026560 1.946099 -5.399857 7.511832 -0.345480 0.000000 0.000000 0.000000
29.504756 78.157629 363.996771 -0.504265 0.200603 6.727774 -1.591494 -0.437637 -6.810958 0.182362 0.260293 -0.070697 -48.501810 -2.023612 -2.352054 0.000000 0.000000 0.000000 -39.521444 -7.543372 -3.311294 -108.153260 -37.326504 -32.008126 -56.461371 -24.913280 -55.740665 -39.936729 14.008934 -88.424991 0.000000 0.000000 0.000000 0.000000 0.000000 0.000000 158.377901 21.588890 -53.652582 121.894329 60.311231 28.282280 19.417438 -11.436189 -12.339534 -26.092263 -17.800843 -14.712644 0.000000 0.000000 0.000000 0.000000 0.000000 0.000000 8.550361 -24.085729 -1.353211 -9.393797 23.360249 -1.684060 0.416011 -0.604094 -1.285504 0.000000 0.000000 0.000000 -6.771643 -2.288168 -8.113204 11.874219 -2.585254 1.870659 -4.678354 7.476474 -1.701837 0.000000 0.000000 0.000000
29.593630 78.439775 363.924036 -1.108556 0.079455 8.227047 -1.026390 -0.164908 -8.306111 0.021645 0.249502 -0.084870 -44.320295 -1.632709 -1.939446 0.000000 0.000000 0.000000 -37.350470 -9.895810 -3.682388 -93.625558 -30.217850 0.582715 -43.462331 -39.319967 -0.125764 31.906513 52.600314 80.456085 0.000000 0.000000 0.000000 0.000000 0.000000 0.000000 165.743494 23.503047 -64.198071 119.300033 76.832962 35.093574 30.860926 -2.328750 -8.540274 -40.829357 -24.400687 -21.192733 0.000000 0.000000 0.000000 0.000000 0.000000 0.000000 9.031469 -23.110292 -3.399367 -9.994447 22.089136 -1.226289 0.691335 1.571767 -3.172538 0.000000 0.000000 0.000000 -5.479394 -2.236800 -9.530473 10.694267 -2.343358 1.739260 -3.912341 7.392901 -2.825671 0.000000 0.000000 0.000000
29.744843 78.621666 363.846330 -1.551865 -0.022432 9.528421 -0.768235 0.216153 -9.608824 0.183610 0.472884 -0.076349 -37.596151 -0.046086 -0.886367 0.000000 0.000000 0.000000 -35.800457 -12.135442 -4.172450 -86.584791 -22.184858 18.695808 -24.874712 -25.198425 74.524157 22.921967 5.561688 -22.634188 0.000000 0.000000 0.000000 0.000000 0.000000 0.000000 173.607950 26.769475 -79.529885 -66.406778 83.463317 -134.487391 37.748545 8.268697 -6.401907 -44.649177 -27.247241 -22.410027 0.000000 0.000000 0.000000 0.000000 0.000000 0.000000 9.350525 -22.039773 -5.233979 -10.410506 20.733553 -0.842221 0.682636 3.471739 -3.789125 0.000000 0.000000 0.000000 -4.255903 -2.375276 -10.770212 9.297074 -1.955154 1.590240 -3.144829 7.256808 -3.590969 0.000000 0.000000 0.000000
30.152407 78.799451 363.755189 -0.953520 0.202308 10.299989 -0.188935 0.445624 -10.336857 1.034959 0.706394 0.040219 -34.418135 -0.593380 -1.303191 0.000000 0.000000 0.000000 -36.247654 -11.892991 -4.374166 -84.262127 -17.590367 23.721280 -27.951250 -6.868354 111.602145 4.671045 -4.202131 -66.114329 0.000000 0.000000 0.000000 0.000000 0.000000 0.000000 -177.441705 30.690935 -104.307761 -61.426052 55.603076 -130.780050 43.018037 3.961428 -5.878683 -42.528905 -24.649774 -15.040320 0.000000 0.000000 0.000000 0.000000 0.000000 0.000000 8.176532 -21.417186 -6.286266 -10.097287 19.889017 -0.834251 0.982204 -3.042663 -2.432106 0.000000 0.000000 0.000000 -4.394449 -2.580680 -11.503466 8.228421 -1.856329 1.462060 -2.621596 7.215703 -3.553017 0.000000 0.000000 0.000000
30.638716 78.863528 363.677349 0.467251 0.626223 10.453941 0.334419 0.602610 -10.433429 0.852405 0.582652 0.105424 -37.216152 -0.880064 -1.775837 0.000000 0.000000 0.000000 -37.202024 -10.393248 -4.352565 -85.203159 -17.492311 21.456955 -25.697242 -5.283079 107.225914 11.156641 -6.282045 -50.568639 0.000000 0.000000 0.000000 0.000000 0.000000 0.000000 -168.894830 32.337429 -129.274496 -59.310121 28.081094 -121.267698 39.417878 -0.549144 -6.655553 -30.613617 -25.882076 -7.680118 0.000000 0.000000 0.000000 0.000000 0.000000 0.000000 6.253183 -21.083328 -6.561523 -10.226678 18.399763 -0.804792 1.555938 -6.124399 -0.357448 0.000000 0.000000 0.000000 -5.410129 -2.761421 -11.615504 7.162019 -1.806835 1.315112 -2.241481 7.058914 -2.799503 0.000000 0.000000 0.000000
31.119372 78.820875 363.601743 1.562517 1.012563 10.164548 0.073075 0.724035 -10.133195 1.152013 0.708148 0.166213 -43.281706 -1.199925 -2.503245 0.000000 0.000000 0.000000 -39.213186 -7.873288 -4.359426 -85.254606 -20.763571 12.340219 -25.920666 9.362281 131.798546 3.087725 -11.313269 -58.101412 0.000000 0.000000 0.000000 0.000000 0.000000 0.000000 -162.870667 33.131219 -148.426064 -58.514615 7.596039 -113.026011 27.795301 -4.126779 -10.437646 -10.126309 -20.598555 4.333038 0.000000 0.000000 0.000000 0.000000 0.000000 0.000000 4.777367 -21.034466 -6.272972 -10.104915 18.094448 -0.916356 1.978543 -8.949625 1.445459 0.000000 0.000000 0.000000 -6.069095 -2.936800 -11.277805 6.037211 -1.951627 1.146770 -1.791153 7.057382 -2.059727 0.000000 0.000000 0.000000
